<svg width="32" height="40" viewBox="0 0 32 40" fill="none" xmlns="http://www.w3.org/2000/svg">
  <path d="M28.7175 20.0167C27.4375 21.615 25.5525 23.1458 23.26 24.0517C24.64 25.7517 25.3367 27.645 24.8342 29.6133C24.355 31.4925 22.5583 33.3267 20.0008 33.3267H6.66667V23.3283H18.3333C24.7667 23.3283 30 18.0958 30 11.6642C30 5.2325 24.7667 0 18.3333 0H0V14.9967H6.66667V6.665H18.3333C21.0917 6.665 23.3333 8.90583 23.3333 11.6642C23.3333 14.4225 21.0917 16.6633 18.3333 16.6633H0V40H20C26.4333 40 31.6667 34.7675 31.6667 28.3358C31.6667 25.4825 30.8642 22.2792 28.7175 20.0167Z" fill="url(#b_grad)"/>
  <defs>
    <linearGradient id="b_grad" x1="-3.79358" y1="36.2064" x2="27.7859" y2="4.62691" gradientUnits="userSpaceOnUse">
      <stop offset="0" stop-color="#C815E0"/>
      <stop offset="0.8" stop-color="#0C72ED"/>
    </linearGradient>
  </defs>
</svg>
